<svg xmlns="http://www.w3.org/2000/svg" xmlns:xlink="http://www.w3.org/1999/xlink" width="500" zoomAndPan="magnify" viewBox="0 0 375 374.999991" height="500" preserveAspectRatio="xMidYMid meet" version="1.2"><defs><clipPath id="1887662e54"><path d="M 79.230469 79.230469 L 295.769531 79.230469 L 295.769531 295.769531 L 79.230469 295.769531 Z M 79.230469 79.230469 "/></clipPath><clipPath id="a523c61755"><path d="M 187.5 79.230469 C 127.707031 79.230469 79.230469 127.707031 79.230469 187.5 C 79.230469 247.292969 127.707031 295.769531 187.5 295.769531 C 247.292969 295.769531 295.769531 247.292969 295.769531 187.5 C 295.769531 127.707031 247.292969 79.230469 187.5 79.230469 Z M 187.5 79.230469 "/></clipPath><clipPath id="eca864ac90"><path d="M 128.117188 127.589844 L 246.617188 127.589844 L 246.617188 247.589844 L 128.117188 247.589844 Z M 128.117188 127.589844 "/></clipPath></defs><g id="590a57a3ec"><rect x="0" width="375" y="0" height="374.999991" style="fill:#ffffff;fill-opacity:1;stroke:none;"/><rect x="0" width="375" y="0" height="374.999991" style="fill:#ffffff;fill-opacity:1;stroke:none;"/><g clip-rule="nonzero" clip-path="url(#1887662e54)"><g clip-rule="nonzero" clip-path="url(#a523c61755)"><path style=" stroke:none;fill-rule:nonzero;fill:#000000;fill-opacity:1;" d="M 79.230469 79.230469 L 295.769531 79.230469 L 295.769531 295.769531 L 79.230469 295.769531 Z M 79.230469 79.230469 "/></g></g><g clip-rule="nonzero" clip-path="url(#eca864ac90)"><path style=" stroke:none;fill-rule:nonzero;fill:#ffffff;fill-opacity:1;" d="M 159.550781 158.800781 L 159.550781 171.746094 L 208.792969 171.746094 C 210.523438 171.746094 212.132812 170.988281 213.320312 169.847656 L 213.320312 169.804688 C 214.5 168.667969 215.222656 167.066406 215.222656 165.335938 C 215.222656 163.5625 214.5 161.960938 213.320312 160.824219 L 213.320312 160.78125 C 212.132812 159.640625 210.527344 158.925781 208.792969 158.925781 L 208.792969 158.882812 Z M 159.550781 180.980469 L 159.550781 215.855469 L 172.414062 215.855469 L 172.414062 193.800781 L 208.792969 193.800781 C 213.0625 193.800781 216.996094 195.570312 219.832031 198.398438 L 219.875 198.441406 C 222.707031 201.265625 224.484375 205.1875 224.484375 209.449219 C 224.484375 213.707031 222.707031 217.628906 219.875 220.453125 L 219.832031 220.496094 C 216.996094 223.320312 213.0625 225.09375 208.792969 225.09375 L 181.675781 225.09375 L 181.675781 247.148438 L 128.121094 247.148438 L 128.121094 171.746094 L 150.246094 171.746094 L 150.246094 149.605469 L 208.792969 149.691406 L 208.792969 149.648438 C 213.0625 149.648438 216.996094 151.417969 219.832031 154.285156 L 219.875 154.285156 C 222.707031 157.152344 224.484375 161.035156 224.484375 165.335938 C 224.484375 169.59375 222.707031 173.472656 219.875 176.34375 L 219.832031 176.34375 C 216.996094 179.210938 213.0625 180.980469 208.792969 180.980469 Z M 150.246094 220.496094 L 150.246094 180.980469 L 137.386719 180.980469 L 137.386719 237.914062 L 172.414062 237.914062 L 172.414062 225.09375 L 150.246094 225.09375 Z M 181.675781 215.855469 L 208.792969 215.855469 C 210.523438 215.855469 212.132812 215.140625 213.320312 213.960938 C 214.5 212.777344 215.222656 211.175781 215.222656 209.449219 C 215.222656 207.71875 214.5 206.117188 213.320312 204.933594 C 212.132812 203.753906 210.527344 203.035156 208.792969 203.035156 L 181.675781 203.035156 Z M 128.121094 154.203125 L 128.121094 127.589844 L 208.792969 127.589844 C 219.199219 127.589844 228.671875 131.851562 235.527344 138.683594 C 242.378906 145.515625 246.609375 154.917969 246.609375 165.335938 C 246.609375 170.015625 245.722656 174.527344 244.113281 178.746094 C 242.929688 181.867188 241.320312 184.734375 239.417969 187.390625 C 241.320312 190.007812 242.929688 192.917969 244.113281 195.992188 C 245.722656 200.210938 246.609375 204.765625 246.609375 209.449219 C 246.609375 219.820312 242.378906 229.269531 235.527344 236.097656 C 228.671875 242.929688 219.199219 247.148438 208.792969 247.148438 L 199.230469 247.148438 L 199.230469 237.914062 L 208.792969 237.914062 C 216.617188 237.914062 223.765625 234.710938 228.96875 229.5625 C 234.128906 224.375 237.34375 217.289062 237.34375 209.449219 C 237.34375 205.820312 236.667969 202.402344 235.484375 199.28125 C 234.214844 196.039062 232.351562 193.042969 230.027344 190.46875 L 227.234375 187.390625 L 230.027344 184.3125 C 232.351562 181.699219 234.214844 178.703125 235.484375 175.457031 C 236.667969 172.335938 237.34375 168.917969 237.34375 165.335938 C 237.34375 157.492188 234.128906 150.363281 228.96875 145.21875 C 223.765625 140.03125 216.617188 136.828125 208.792969 136.828125 L 137.386719 136.828125 L 137.386719 154.203125 Z M 128.121094 154.203125 "/></g></g></svg>